Format                                   : AVI
Format/Info                              : Audio Video Interleave
File size                                : 1.79 GiB
Duration                                 : 2h 37mn
Overall bit rate                         : 1 626 Kbps
Writing library                          : VirtualDub build 30091/release

Video
ID                                       : 0
Format                                   : MPEG-4 Visual
Format profile                           : Advanced Simple@L5
Format settings, BVOP                    : 1
Format settings, QPel                    : No
Format settings, GMC                     : No warppoints
Format settings, Matrix                  : Default (H.263)
Muxing mode                              : Packed bitstream
Codec ID                                 : XVID
Codec ID/Hint                            : XviD
Duration                                 : 2h 37mn
Bit rate                                 : 1 294 Kbps
Width                                    : 656 pixels
Height                                   : 352 pixels
Display aspect ratio                     : 1.85:1
Frame rate                               : 29.970 fps
Color space                              : YUV
Chroma subsampling                       : 4:2:0
Bit depth                                : 8 bits
Scan type                                : Progressive
Compression mode                         : Lossy
Bits/(Pixel*Frame)                       : 0.187
Stream size                              : 1.43 GiB (80%)
Writing library                          : XviD 1.2.1 (UTC 2008-12-04)

Audio
ID                                       : 1
Format                                   : AC-3
Format/Info                              : Audio Coding 3
Mode extension                           : CM (complete main)
Format settings, Endianness              : Big
Codec ID                                 : 2000
Duration                                 : 2h 37mn
Bit rate mode                            : Constant
Bit rate                                 : 320 Kbps
Channel(s)                               : 2 channels
Channel positions                        : Front: L R
Sampling rate                            : 48.0 KHz
Bit depth                                : 16 bits
Compression mode                         : Lossy
Stream size                              : 361 MiB (20%)

 
http://www.shotpix.com/images/33673321324538112143.png 
http://www.shotpix.com/images/45626186351941140030.png 
http://www.shotpix.com/images/72962247148809256395.png 
http://www.shotpix.com/images/51854530844750778121.png